<svg xmlns="http://www.w3.org/2000/svg" viewBox="0 0 599.78 536.96"><defs><style>.cls-1{font-size:124px;fill:#5f6163;font-family:Avenir-Light, Avenir;font-weight:300;}.cls-2{font-family:Avenir-Medium, Avenir;font-weight:500;}.cls-3{fill:#77b142;}.cls-4{fill:#f37641;}.cls-5{fill:#f4d016;}.cls-6{fill:#223066;}</style></defs><title>OpenNotes</title><g id="Layer_2" data-name="Layer 2"><g id="Layer_1-2" data-name="Layer 1"><g id="x4v"><text class="cls-1" transform="translate(0 486.25)">open<tspan class="cls-2" x="287.31" y="0">notes</tspan></text><path class="cls-3" d="M313.44,70.28a37.13,37.13,0,0,0-38.91-18.47L169.43,70.48a37.13,37.13,0,0,0-30.06,43.05l28.28,159.15V111.41a41.18,41.18,0,0,1,41.13-41.13Z"/><path class="cls-4" d="M315.52,74.28H208.78a37.13,37.13,0,0,0-37.13,37.13V274.59l28.1-158.4a41.08,41.08,0,0,1,47.68-33.31l93.94,16.67,5.81-7.5A37.1,37.1,0,0,0,315.52,74.28Z"/><path class="cls-5" d="M338.61,103.12l-91.87-16.3a37.13,37.13,0,0,0-43.05,30.07l-29.3,165.16a37.13,37.13,0,0,0,26.66,42.27l40.48-95.81Z"/><path class="cls-5" d="M285.55,262.31l-81.9,62.62.81.17,105.1,18.64a37.12,37.12,0,0,0,43-30.07l29.31-165.16a37.23,37.23,0,0,0,.28-11Z"/><polygon class="cls-6" points="460.99 29.16 423.5 0 397.85 33.13 436.34 61.01 460.99 29.16"/><polygon class="cls-6" points="386.68 47.56 425.17 75.44 433.22 65.04 394.73 37.16 386.68 47.56"/><polygon class="cls-6" points="383.56 51.59 245.01 230.54 208.99 315.82 282.71 259.45 422.05 79.47 383.56 51.59"/></g></g></g></svg>