<svg xmlns="http://www.w3.org/2000/svg" viewBox="0 0 1172.21 344.32"><defs><style>.cls-1{fill:#77b142;}.cls-2{fill:#f37641;}.cls-3{fill:#f4d016;}.cls-4{fill:#223066;}.cls-5{font-size:164px;font-family:Avenir-Book, Avenir;}</style></defs><title>Horizontal</title><g id="Layer_2" data-name="Layer 2"><g id="Layer_1-2" data-name="Layer 1"><g id="x4_Spacing" data-name="x4 Spacing"><path class="cls-1" d="M174.65,70.28a37.13,37.13,0,0,0-38.91-18.47L30.64,70.48A37.13,37.13,0,0,0,.58,113.53L28.86,272.68V111.41A41.17,41.17,0,0,1,70,70.28Z"/><path class="cls-2" d="M176.73,74.28H70a37.12,37.12,0,0,0-37.12,37.13V274.59L61,116.19a41.08,41.08,0,0,1,47.68-33.31l93.94,16.67,5.8-7.5A37.07,37.07,0,0,0,176.73,74.28Z"/><path class="cls-3" d="M199.82,103.12l-91.88-16.3a37.12,37.12,0,0,0-43,30.07L35.59,282.05a37.14,37.14,0,0,0,26.67,42.27l40.48-95.81Z"/><path class="cls-3" d="M146.76,262.31l-81.9,62.62.81.17,105.1,18.64a37.12,37.12,0,0,0,43-30.07l29.31-165.16a37.23,37.23,0,0,0,.28-11Z"/><polygon class="cls-4" points="322.2 29.16 284.71 0 259.06 33.13 297.55 61.01 322.2 29.16"/><polygon class="cls-4" points="247.89 47.56 286.38 75.44 294.43 65.04 255.94 37.16 247.89 47.56"/><polygon class="cls-4" points="244.77 51.59 106.22 230.54 70.19 315.82 143.92 259.45 283.25 79.47 244.77 51.59"/><text class="cls-5" transform="translate(312.53 257.25)">OpenNotes</text><text class="cls-5" transform="translate(312.53 257.25)">OpenNotes</text></g></g></g></svg>