<svg xmlns="http://www.w3.org/2000/svg" viewBox="0 0 650 521.96"><defs><style>.cls-1{font-size:124px;font-family:Avenir-Book, Avenir;}.cls-2{fill:#77b142;}.cls-3{fill:#f37641;}.cls-4{fill:#f4d016;}.cls-5{fill:#223066;}</style></defs><title>Vertical</title><g id="Layer_2" data-name="Layer 2"><g id="Layer_1-2" data-name="Layer 1"><g id="x4v"><text class="cls-1" transform="translate(0 486.25)">OpenNotes</text><path class="cls-2" d="M338.55,70.28a37.13,37.13,0,0,0-38.91-18.47L194.54,70.48a37.13,37.13,0,0,0-30.06,43.05l28.28,159.15V111.41a41.17,41.17,0,0,1,41.12-41.13Z"/><path class="cls-3" d="M340.63,74.28H233.88a37.12,37.12,0,0,0-37.12,37.13V274.59l28.1-158.4a41.08,41.08,0,0,1,47.68-33.31l93.94,16.67,5.81-7.5A37.1,37.1,0,0,0,340.63,74.28Z"/><path class="cls-4" d="M363.72,103.12l-91.88-16.3a37.12,37.12,0,0,0-43,30.07L199.5,282.05a37.13,37.13,0,0,0,26.66,42.27l40.48-95.81Z"/><path class="cls-4" d="M310.66,262.31l-81.9,62.62.81.17,105.1,18.64a37.12,37.12,0,0,0,43-30.07L407,148.51a37.23,37.23,0,0,0,.28-11Z"/><polygon class="cls-5" points="486.1 29.16 448.61 0 422.96 33.13 461.45 61.01 486.1 29.16"/><polygon class="cls-5" points="411.79 47.56 450.28 75.44 458.33 65.04 419.84 37.16 411.79 47.56"/><polygon class="cls-5" points="408.67 51.59 270.12 230.54 234.09 315.82 307.82 259.45 447.16 79.47 408.67 51.59"/></g></g></g></svg>